HIERARCHY
ROOT Hips
{
  OFFSET 267.745 86.9975 -272.335
  CHANNELS 6 Xposition Yposition Zposition Zrotation Xrotation Yrotation
  JOINT LeftUpLeg
  {
    OFFSET 8.64259 1.95398 -2.38835
    CHANNELS 3 Zrotation Xrotation Yrotation
    JOINT LeftLeg
    {
      OFFSET 43.7702 0 0
      CHANNELS 3 Zrotation Xrotation Yrotation
      JOINT LeftFoot
      {
        OFFSET 40.6238 0 0
        CHANNELS 3 Zrotation Xrotation Yrotation
        JOINT LeftToeBase
        {
          OFFSET 12.7242 0 0
          CHANNELS 3 Zrotation Xrotation Yrotation
          End Site
          {
            OFFSET 0 0 0
          }
        }
      }
    }
  }
  JOINT RightUpLeg
  {
    OFFSET -8.2249 1.95398 -2.59336
    CHANNELS 3 Zrotation Xrotation Yrotation
    JOINT RightLeg
    {
      OFFSET 43.5653 0 0
      CHANNELS 3 Zrotation Xrotation Yrotation
      JOINT RightFoot
      {
        OFFSET 40.6238 0 0
        CHANNELS 3 Zrotation Xrotation Yrotation
        JOINT RightToeBase
        {
          OFFSET 12.7242 0 0
          CHANNELS 3 Zrotation Xrotation Yrotation
          End Site
          {
            OFFSET 0 0 0
          }
        }
      }
    }
  }
  JOINT Spine
  {
    OFFSET 0.165834 0.87714 6.61349
    CHANNELS 3 Zrotation Xrotation Yrotation
    JOINT Spine1
    {
      OFFSET 7.38963 1.71661e-005 0
      CHANNELS 3 Zrotation Xrotation Yrotation
      JOINT Spine2
      {
        OFFSET 11.9445 1.14441e-005 0
        CHANNELS 3 Zrotation Xrotation Yrotation
        JOINT Spine3
        {
          OFFSET 14.7254 4.19617e-005 0
          CHANNELS 3 Zrotation Xrotation Yrotation
          JOINT Spine4
          {
            OFFSET 10.9679 0 0
            CHANNELS 3 Zrotation Xrotation Yrotation
            JOINT RightShoulder
            {
              OFFSET 2.46616 -1.6653 3.69651
              CHANNELS 3 Zrotation Xrotation Yrotation
              JOINT RightArm
              {
                OFFSET 13.0012 0 0
                CHANNELS 3 Zrotation Xrotation Yrotation
                JOINT RightForeArm
                {
                  OFFSET 28.7848 1.52588e-005 0
                  CHANNELS 3 Zrotation Xrotation Yrotation
                  JOINT RightHand
                  {
                    OFFSET 26.5688 1.52588e-005 0
                    CHANNELS 3 Zrotation Xrotation Yrotation
                    End Site
                    {
                      OFFSET 0 0 0
                    }
                  }
                }
              }
            }
            JOINT LeftShoulder
            {
              OFFSET 2.38034 -1.29275 -3.7523
              CHANNELS 3 Zrotation Xrotation Yrotation
              JOINT LeftArm
              {
                OFFSET 16.3182 6.10352e-005 0
                CHANNELS 3 Zrotation Xrotation Yrotation
                JOINT LeftForeArm
                {
                  OFFSET 27.0901 0 0
                  CHANNELS 3 Zrotation Xrotation Yrotation
                  JOINT LeftHand
                  {
                    OFFSET 24.5451 1.52588e-005 0
                    CHANNELS 3 Zrotation Xrotation Yrotation
                    End Site
                    {
                      OFFSET 0 0 0
                    }
                  }
                }
              }
            }
            JOINT Neck
            {
              OFFSET 5.0226 -0.0266342 0
              CHANNELS 3 Zrotation Xrotation Yrotation
              JOINT Head
              {
                OFFSET 6.69364 2.86102e-005 0
                CHANNELS 3 Zrotation Xrotation Yrotation
                End Site
                {
                  OFFSET 0 0 0
                }
              }
            }
          }
        }
      }
    }
  }
}
MOTION
Frames:	11
Frame Time:	0.0416667
5.54895 50.4731 20.5337 3.34584 -39.6036 5.90554 -161.667 62.4293 88.2715 -113.961 2.04132 3.47326 74.0417 5.7984 -14.7421 72.6492 -5.99869 -3.72387 169.743 54.1562 68.5776 -99.7388 -24.9722 -1.1216 93.5656 -6.73636 26.8963 66.5893 -7.32325 8.1909 1.31376 10.6917 -89.5712 5.47968 2.80337 0.77785 -6.18839 2.83488 0.65361 -28.7411 2.43995 1.5848 -8.7285 2.43995 1.5848 101.515 3.09569 -84.9707 -19.1247 24.1403 -50.3975 -1.40618 -25.1658 -11.5561 -20.1491 -1.20523 1.74562 -81.6636 -26.8424 88.913 -17.0943 4.61322 -96.2912 4.08259 40.8883 -10.3473 41.8938 5.26652 8.75207 6.06666 -7.58119 22.2078 15.5547 -16.4852 -27.3482 
4.15275 49.417 29.6778 7.43232 -37.2487 9.58245 -171.758 55.3448 98.1278 -105.582 6.66183 2.76379 70.4254 3.53928 -14.841 71.347 -6.15217 -5.05202 164.993 43.6918 74.1251 -89.7823 -22.6889 0.691539 94.0259 -7.89368 25.5268 64.7063 -7.14341 7.45479 1.26217 10.5776 -89.5327 5.70693 2.7171 0.848234 -5.96137 2.75179 0.727734 -28.5122 2.33653 1.62593 -8.49952 2.33652 1.62594 101.155 2.91823 -86.518 -20.3793 22.8612 -48.0593 0.80249 -32.113 -6.64202 -23.0495 -1.64373 3.16002 -85.1539 -36.6853 83.7368 -11.3843 3.54258 -87.9272 4.57832 48.6046 -15.2092 42.0302 5.71851 9.79034 15.075 -6.34848 27.9821 7.78299 -17.3184 -33.3302 
2.19724 46.7492 38.646 11.5275 -34.6581 12.0827 -177.454 48.2841 103.185 -96.9445 11.286 2.55861 64.9178 0.180297 -15.8601 71.8216 -7.11022 -8.25289 162.453 33.5202 76.6471 -79.4105 -20.0759 2.91855 91.9623 -6.73881 25.3824 68.1351 -6.65847 11.6221 1.29058 10.4501 -89.3682 5.95995 2.84399 1.15864 -5.70822 2.89223 1.03226 -28.2583 2.36428 1.96008 -8.24563 2.36429 1.96006 101.18 0.980378 -86.5134 -24.8929 15.0295 -43.776 4.65942 -31.3116 -5.9964 -32.4653 -3.26079 5.6353 -87.8944 -47.2391 81.0977 -6.88926 3.57148 -79.0853 8.24644 55.7791 -22.1887 43.4642 6.17892 10.3999 19.7705 -7.57863 27.1279 4.08506 -18.1721 -33.0171 
-0.154897 42.6155 47.1772 15.0552 -30.2536 12.4042 -177.029 43.3057 104.515 -88.1506 16.2522 2.37234 61.0177 -1.58703 -14.2768 70.1209 -8.05516 -13.2489 161.518 25.0946 77.2955 -68.124 -16.718 5.34039 92.4021 -5.15247 27.67 61.419 -4.42505 18.0671 0.7975 9.99998 -88.8685 6.84923 2.07702 2.14329 -4.82168 2.16931 2.0498 -27.349 1.33709 2.66815 -7.33634 1.3371 2.66815 102.261 -6.29902 -80.9772 -25.1661 7.97537 -42.2162 -0.239524 -20.2984 -23.6925 -51.5845 -5.19031 5.78969 -88.1661 -54.9414 82.0835 -1.04029 4.10385 -67.4079 18.1195 56.0046 -35.345 45.8932 6.57188 10.4179 18.8252 -8.65711 20 6.29351 -16.9765 -28.405 
-2.02673 37.7486 54.2926 16.81 -26.5975 12.6901 -173.08 39.7409 106.056 -81.2686 16.97 1.74864 56.3031 -4.09588 -14.918 66.7607 -6.91174 -11.7624 162.556 17.1926 78.6335 -56.4635 -13.5537 6.82927 89.9469 -2.27757 30.2066 60.5489 -3.03413 24.4942 0.20094 9.33701 -88.6146 8.18014 1.00947 2.67886 -3.4931 1.12637 2.63187 -26.0063 0.158069 2.85825 -5.99368 0.158066 2.85824 103.231 -10.4523 -78.908 -24.6193 -0.617147 -41.1797 -6.80318 -12.1765 -43.7743 -57.0806 -5.07108 4.28966 -89.1054 -56.0528 80.9467 4.80061 4.17718 -52.2618 20.5175 51.8078 -39.9061 37.1327 5.80106 11.9394 15.6982 -8.75718 11.4154 9.7259 -14.2393 -21.8514 
-3.40392 33.0131 59.9414 17.5473 -23.4468 11.867 -168.141 36.7809 106.623 -75.358 16.3912 0.575871 53.2685 -5.42114 -14.504 65.3496 -6.71871 -12.3146 164.717 11.8324 79.7492 -47.8389 -11.7135 6.66489 86.1946 0.326334 31.5958 49.5737 -1.4254 37.1106 -0.00114797 8.66135 -88.2668 9.52632 0.778733 3.37895 -2.14868 0.926595 3.34145 -24.6485 -0.272126 3.45674 -4.63586 -0.272126 3.45673 103.755 -11.5173 -77.4558 -22.1108 -13.0471 -36.9636 -12.8848 -5.33692 -60.6136 -69.2283 -5.09192 2.31158 -87.7654 -55.4029 82.7282 5.33248 5.7485 -41.6662 18.74 49.8404 -39.3875 49.0725 6.30079 8.77796 16.7438 -9.08371 6.28752 8.27818 -12.7437 -20.1819 
-4.10706 28.0737 64.7048 19.2572 -20.4338 11.4548 -166.033 33.6239 107.119 -69.6191 15.3298 -0.179088 50.5873 -6.77517 -16.5596 63.6068 -5.3231 -7.36602 166.271 7.10445 80.9556 -41.1301 -9.74509 6.29422 82.8371 1.5298 31.0011 46.0481 -1.75552 37.5188 -0.104822 8.04727 -88.1197 10.7547 0.658315 3.67598 -0.921184 0.819356 3.64351 -23.415 -0.476097 3.70395 -3.40232 -0.476102 3.70396 104.139 -12.3605 -76.4258 -16.5253 -25.028 -29.3661 -20.747 1.90266 -74.3362 -69.7737 -6.03296 3.63022 -85.8871 -54.3715 85.2645 5.43884 9.50917 -33.6854 17.5261 48.883 -38.9374 44.1075 4.73509 6.86554 17.4334 -9.73501 5.88332 6.52686 -12.9118 -19.5401 
-4.37071 22.8355 68.4238 19.6572 -17.913 10.27 -164.349 30.3259 107.27 -64.4123 14.5109 -0.833217 46.7299 -8.50036 -18.3245 62.7639 -5.29725 -7.97349 167.835 3.8332 81.715 -36.3577 -9.32065 5.22494 77.4169 3.53772 30.4502 44.9592 -1.66112 40.7946 -0.138836 7.5253 -88.01 11.7954 0.65908 3.89729 0.118912 0.829837 3.86457 -22.37 -0.541744 3.91528 -2.35736 -0.541746 3.91528 104.581 -14.0717 -75.4369 -6.4493 -32.2173 -17.2328 -31.1374 9.91111 -86.1027 -69.3994 -6.29267 4.06201 -84.7281 -51.061 86.5449 3.87817 15.3636 -24.3839 18.7311 46.6587 -41.9519 45.1045 4.93249 7.0231 21.0674 -10.4433 4.96083 4.04957 -13.0105 -19.5089 
-4.02146 18.622 70.7335 24.5221 -14.5255 9.59067 -165.653 28.5905 105.831 -59.9093 15.9486 -0.825199 43.9185 -9.6433 -18.9145 62.3387 -6.03075 -12.3581 166.704 1.62076 80.6339 -32.5227 -7.11481 6.4122 70.9492 6.82124 31.77 43.2103 -1.66788 45.5199 -0.776834 7.13743 -87.988 12.5923 -0.583941 4.08795 0.914969 -0.403605 4.10963 -21.5766 -1.78471 3.7244 -1.56399 -1.78472 3.72437 104.768 -13.249 -74.7862 4.18154 -39.3902 -3.47206 -41.4487 20.2731 -94.2316 -66.3716 -6.33086 4.64924 -84.2945 -49.7665 87.0442 1.71835 19.2054 -14.8357 19.4731 45.2145 -43.6393 45.6766 4.71055 6.37511 27.6691 -10.196 5.97803 -0.679808 -12.5812 -19.8893 
-4.05089 14.6314 72.4936 23.6096 -10.2985 7.83261 -163.609 29.108 105.901 -56.5552 15.673 -2.03394 41.2928 -10.8047 -21.4343 60.8874 -5.85777 -13.2124 166.586 2.58659 80.2833 -29.4917 -7.89034 6.57609 65.752 8.57528 31.7725 42.1952 -1.61138 50.4532 -1.01213 6.72536 -88.0479 13.4259 -1.06369 4.04403 1.74897 -0.884825 4.08683 -20.7489 -2.2292 3.53847 -0.736268 -2.22921 3.53847 104.819 -12.3775 -74.4949 14.4915 -43.3179 10.0301 -51.2258 31.8677 -98.7767 -62.1313 -7.03659 6.64242 -83.125 -47.0394 88.5545 -2.90745 21.5836 -6.36198 28.2893 48.4089 -50.8929 41.4853 4.24479 6.35151 35.2524 -10.4987 5.93171 -4.6922 -12.4534 -18.8843 
-4.43972 10.7597 73.9182 18.9117 -6.58112 6.82428 -158.273 29.3174 108.002 -53.4082 9.43008 -4.16989 39.3487 -11.1619 -26.4371 60.4747 -5.33525 -10.7776 168.559 3.45947 81.6579 -28.9941 -4.74782 5.03203 65.0295 9.27415 33.5602 47.1202 -2.41012 33.3861 -0.792727 6.17284 -88.3835 14.5284 -0.771752 3.36594 2.8532 -0.622959 3.3966 -19.6549 -1.74726 2.97897 0.357691 -1.74726 2.97899 104.747 -11.5317 -74.5576 24.1583 -45.2809 22.245 -57.9817 42.2838 -101.084 -59.7438 -6.71577 6.67025 -82.025 -46.475 90.2329 -5.51313 25.6947 -0.17847 23.5964 47.557 -48.0454 44.4927 5.55967 8.60718 35.969 -9.90459 5.18176 -4.48198 -11.6045 -16.2488 
